<?xml version="1.0" encoding="UTF-8"?>
<svg id="Layer_1" data-name="Layer 1" xmlns="http://www.w3.org/2000/svg" xmlns:xlink="http://www.w3.org/1999/xlink" viewBox="250 650 3500 700">
  <defs>
    <style>
      .cls-1 {
        filter: url(#drop-shadow-2);
      }

      .cls-2 {
        fill: #fff;
      }

      .cls-3 {
        filter: url(#drop-shadow-1);
      }

      .cls-4 {
        fill: #ffb400;
      }

      .cls-5 {
        fill: url(#linear-gradient);
      }
    </style>
    <filter id="drop-shadow-1" x="1056" y="736.43" width="2656" height="528" filterUnits="userSpaceOnUse">
      <feOffset dx="1" dy="1"/>
      <feGaussianBlur result="blur" stdDeviation="5"/>
      <feFlood flood-color="#000" flood-opacity=".25"/>
      <feComposite in2="blur" operator="in"/>
      <feComposite in="SourceGraphic"/>
    </filter>
    <linearGradient id="linear-gradient" x1="568.64" y1="673.31" x2="568.64" y2="1326.69" gradientUnits="userSpaceOnUse">
      <stop offset="0" stop-color="#00e0c6"/>
      <stop offset=".25" stop-color="#00c3d6"/>
      <stop offset=".5" stop-color="#00a6e0"/>
      <stop offset=".75" stop-color="#008ae6"/>
      <stop offset="1" stop-color="#0077e6"/>
    </linearGradient>
    <filter id="drop-shadow-2" x="2585" y="735.43" width="402" height="521" filterUnits="userSpaceOnUse">
      <feOffset dx="1" dy="1"/>
      <feGaussianBlur result="blur-2" stdDeviation="5"/>
      <feFlood flood-color="#000" flood-opacity=".25"/>
      <feComposite in2="blur-2" operator="in"/>
      <feComposite in="SourceGraphic"/>
    </filter>
  </defs>
  <g>
    <g class="cls-3">
      <path class="cls-2" d="M1070.44,759.5h199.98c96.74,0,155.18,50.65,155.18,133.11,0,51.29-23.37,88.95-66.88,107.78,47.4,15.58,72.72,52.59,72.72,107.13,0,85.06-57.14,132.46-161.02,132.46h-199.98v-480.48ZM1175.63,851.7v104.54h83.76c37.66,0,58.44-18.83,58.44-53.24s-20.13-51.29-58.44-51.29h-83.76ZM1175.63,1044.54v103.24h88.95c38.96,0,59.08-17.53,59.08-53.24,0-32.46-20.78-49.99-59.08-49.99h-88.95Z"/>
      <path class="cls-2" d="M1472.34,1077c0-101.29,68.18-172.06,166.22-172.06s165.57,66.88,165.57,172.71v25.32l-235.69,1.3c5.84,42.85,29.87,62.98,74.02,62.98,37.66,0,64.28-13.63,71.42-37.01h91.55c-11.69,72.07-75.97,118.17-164.92,118.17-98.04,0-168.17-71.42-168.17-171.41ZM1569.74,1042.59h135.05c0-34.41-25.32-56.49-65.58-56.49s-61.68,17.53-69.47,56.49Z"/>
      <path class="cls-2" d="M1863.21,1239.97v-324.65h94.15l6.49,33.76c20.13-27.92,57.14-44.15,99.34-44.15,77.26,0,122.07,49.35,122.07,134.4v200.63h-99.99v-176.61c0-40.91-22.73-67.53-57.14-67.53-39.61,0-64.93,25.97-64.93,66.23v177.91h-99.99Z"/>
      <path class="cls-2" d="M2239.14,1077c0-101.29,68.18-172.06,166.22-172.06s165.57,66.88,165.57,172.71v25.32l-235.69,1.3c5.84,42.85,29.87,62.98,74.02,62.98,37.66,0,64.28-13.63,71.42-37.01h91.55c-11.69,72.07-75.97,118.17-164.92,118.17-98.04,0-168.17-71.42-168.17-171.41ZM2336.54,1042.59h135.05c0-34.41-25.32-56.49-65.58-56.49s-61.68,17.53-69.47,56.49Z"/>
      <path class="cls-2" d="M3071.52,1239.97v-241.54h-61.68v-83.11h61.68v-100.64h99.99v100.64h61.68v83.11h-61.68v241.54h-99.99Z"/>
      <path class="cls-2" d="M3349.41,1137.39c1.3,22.73,18.18,36.36,48.7,36.36s45.45-11.04,45.45-27.92c0-9.74-5.19-20.13-29.22-25.32l-59.73-12.99c-59.73-12.99-88.95-38.96-88.95-96.1,0-67.53,57.79-106.48,135.7-106.48s127.91,44.15,127.91,109.73h-94.8c0-22.08-13.64-37.01-37.66-37.01-22.73,0-37.01,11.69-37.01,29.22,0,14.93,12.34,23.38,35.06,28.57l60.38,12.99c53.24,11.69,82.46,36.36,82.46,88.3,0,69.48-59.08,111.68-143.49,111.68s-139.6-45.45-139.6-111.03h94.8Z"/>
      <path class="cls-2" d="M3581.85,807.55c0-31.82,25.32-56.49,57.14-56.49s56.49,24.67,56.49,56.49-25.32,57.14-56.49,57.14-57.14-25.32-57.14-57.14ZM3589.64,915.33h99.99v324.65h-99.99v-324.65Z"/>
    </g>
    <path class="cls-4" d="M676.96,940.88l-99.7,107.71c-5.45,5.9-13.05,9.27-21.06,9.35h-.33c-7.89,0-15.45-3.21-20.94-8.86l-72.13-74.57c-11.18-11.59-10.9-30.01.69-41.23,11.55-11.18,30.01-10.86,41.19.69l50.74,52.45,78.76-85.1c10.94-11.83,29.36-12.52,41.19-1.59,11.79,10.94,12.52,29.36,1.59,41.15Z"/>
    <path class="cls-5" d="M552.09,673.87c-140.68,9.11-254.4,139.34-247.25,279.81,4.68,92.26,59.08,151.05,115.39,217.24,43.79,51.47,91.56,99.7,134.95,151.62,15.61,10.73,23.91-1.55,33.91-11.95,45.86-47.81,93.11-99.82,137.14-149.38,42.65-47.98,83.68-90.95,99.09-155.85,41.19-173.09-94.21-343.08-273.23-331.49ZM742.82,978.69c-14.35,66.15-76.85,112.87-122.3,159.38-8.25,8.42-44.2,51.6-52.25,52.37-3.46.37-4.76-.89-7.32-2.4-6.34-3.78-28.05-28.01-35.13-35.29-34.23-35.13-106.28-103.84-123.2-146.33-42.57-107.18,29.11-233.3,144.62-245.13,125.72-12.89,222.44,93.52,195.57,217.4Z"/>
    <path class="cls-2" d="M547.25,761.28c-115.51,11.83-187.19,137.96-144.62,245.13,16.91,42.49,88.96,111.2,123.2,146.33,7.07,7.28,28.79,31.51,35.13,35.29,2.56,1.5,3.86,2.76,7.32,2.4,8.05-.77,43.99-43.95,52.25-52.37,45.46-46.51,107.95-93.23,122.3-159.38,26.88-123.89-69.85-230.29-195.57-217.4ZM676.96,940.88l-99.7,107.71c-5.45,5.9-13.05,9.27-21.06,9.35h-.33c-7.89,0-15.45-3.21-20.94-8.86l-72.13-74.57c-11.18-11.59-10.9-30.01.69-41.23,11.55-11.18,30.01-10.86,41.19.69l50.74,52.45,78.76-85.1c10.94-11.83,29.36-12.52,41.19-1.59,11.79,10.94,12.52,29.36,1.59,41.15Z"/>
    <g class="cls-1">
      <path class="cls-2" d="M2914.4,864.68c31.16,0,56.49-25.32,56.49-57.14s-25.32-56.49-56.49-56.49-57.14,24.67-57.14,56.49,25.32,57.14,57.14,57.14Z"/>
      <path class="cls-2" d="M2744.28,915.33v-25.97c0-27.92,8.44-49.35,42.85-49.35h27.92v-85.71c-15.58-2.6-31.17-3.9-44.8-3.9-75.97,0-125.96,42.2-125.96,138.95v25.97h-44.8v83.11h44.8v241.54h99.99v-241.54h74.38v-83.11h-74.38Z"/>
      <polygon class="cls-2" points="2863.75 1239.97 2964.4 1239.97 2964.4 915.33 2863.63 915.33 2863.75 1239.97"/>
    </g>
  </g>
</svg>